#!OML:ASF F:\VICON\USERDATA\INSTALL\rory3\rory3.ASF
:FULLY-SPECIFIED
:DEGREES
626
root 0.561267 17.5416 2.60219 -6.95242 -41.7487 4.73018
lowerback 4.05143 -0.452584 -3.05903
upperback 0.234579 -0.709784 1.80411
thorax -1.97095 -0.322248 3.61801
lowerneck -22.546 -2.13938 -9.96341
upperneck 23.5014 -1.28862 6.3238
head 11.5108 -0.688071 3.80431
rclavicle -1.46107e-014 -1.59028e-015
rhumerus 55.0295 -63.8837 -30.0266
rradius 65.6103
rwrist -7.14763
rhand -44.6464 1.64484
rfingers 7.12502
rthumb -17.4434 -27.5925
lclavicle -1.46107e-014 -1.59028e-015
lhumerus 26.5776 51.8593 3.42329
lradius 59.5046
lwrist 9.64529
lhand -28.4165 28.7148
lfingers 7.12502
lthumb -1.78814 58.6871
rfemur -0.315979 6.70355 10.7641
rtibia 47.4411
rfoot -11.1953 6.44366
rtoes -7.42143
lfemur -9.68268 -2.25478 -17.7194
ltibia 21.2726
lfoot -6.21913 -14.6879
ltoes -7.49072
627
root 0.567427 17.5239 2.51925 -6.75213 -41.5162 4.50991
lowerback 4.16858 -0.464204 -2.96199
upperback 0.254153 -0.72435 1.77405
thorax -2.01678 -0.329936 3.53428
lowerneck -22.3573 -2.30619 -9.93891
upperneck 23.0857 -1.48182 6.11854
head 11.3355 -0.792147 3.67832
rclavicle -7.74266e-014 -7.15625e-015
rhumerus 54.5564 -63.8668 -29.762
rradius 63.3247
rwrist -7.30451
rhand -44.037 0.701689
rfingers 7.12502
rthumb -16.8569 -28.5867
lclavicle -7.74266e-014 -7.15625e-015
lhumerus 25.3466 50.7804 2.52975
lradius 57.0049
lwrist 8.63633
lhand -27.6003 27.1371
lfingers 7.12502
lthumb -0.999872 57.1145
rfemur -0.149399 7.34235 11.1792
rtibia 46.5352
rfoot -11.7041 7.28556
rtoes -6.89119
lfemur -10.2697 -2.52645 -17.3768
ltibia 21.7592
lfoot -6.22569 -14.7155
ltoes -7.42287
628
root 0.571937 17.5168 2.43103 -6.55849 -41.2949 4.31122
lowerback 4.31614 -0.4509 -2.92432
upperback 0.265316 -0.708232 1.78691
thorax -2.08964 -0.32101 3.52741
lowerneck -22.3071 -2.51825 -10.1081
upperneck 22.9062 -1.70112 6.04963
head 11.2817 -0.911794 3.64039
rclavicle 6.20457e-014 -2.46493e-014
rhumerus 54.1369 -63.7411 -29.5557
rradius 61.1567
rwrist -6.98486
rhand -43.9166 -0.540987
rfingers 7.12502
rthumb -16.7409 -29.8392
lclavicle 6.20457e-014 -2.46493e-014
lhumerus 24.1186 49.6259 1.76158
lradius 54.6065
lwrist 7.6955
lhand -26.5981 29.0919
lfingers 7.12502
lthumb -0.0319153 59.0717
rfemur -0.0820075 7.66654 11.4835
rtibia 45.6618
rfoot -11.9101 8.27128
rtoes -6.20387
lfemur -10.7879 -2.77129 -17.0341
ltibia 22.0674
lfoot -6.12637 -14.7251
ltoes -7.71513
629
root 0.574904 17.5078 2.34159 -6.35563 -41.0756 4.17136
lowerback 4.37488 -0.478914 -2.94545
upperback 0.303945 -0.748555 1.76399
thorax -2.07947 -0.341866 3.51844
lowerneck -22.3577 -2.63263 -10.2388
upperneck 22.8188 -1.81462 6.07841
head 11.2715 -0.968215 3.65288
rclavicle 3.83654e-014 2.06736e-014
rhumerus 53.8203 -63.6783 -29.5313
rradius 59.0971
rwrist -6.92507
rhand -43.6291 -0.904765
rfingers 7.12502
rthumb -16.4641 -30.2261
lclavicle 3.83654e-014 2.06736e-014
lhumerus 22.5735 48.3948 0.701421
lradius 52.4662
lwrist 6.91264
lhand -26.2355 29.1363
lfingers 7.12502
lthumb 0.318303 59.1158
rfemur -0.095025 8.08559 11.7817
rtibia 44.8767
rfoot -12.2504 8.9
rtoes -6.8417
lfemur -11.2594 -3.02225 -16.7213
ltibia 22.1712
lfoot -5.85573 -14.7488
ltoes -7.75212
630
root 0.577975 17.499 2.24874 -6.20239 -40.8145 4.12076
lowerback 4.42623 -0.544817 -3.09268
upperback 0.357283 -0.845063 1.76246
thorax -2.04326 -0.390386 3.60599
lowerneck -22.219 -2.71303 -10.3137
upperneck 22.4079 -1.8558 5.9074
head 11.0956 -1.0072 3.58362
rclavicle 7.26806e-015 -8.74653e-015
rhumerus 53.529 -63.622 -29.5083
rradius 57.1646
rwrist -7.01194
rhand -43.1333 -1.04649
rfingers 7.12502
rthumb -15.9867 -30.4068
lclavicle 7.26806e-015 -8.74653e-015
lhumerus 20.933 47.2554 -0.274402
lradius 50.5492
lwrist 6.26809
lhand -25.976 29.0214
lfingers 7.12502
lthumb 0.568947 59.0004
rfemur -0.105614 8.56714 12.0512
rtibia 44.24
rfoot -12.895 9.37687
rtoes -7.43359
lfemur -11.6742 -3.26583 -16.4752
ltibia 22.0851
lfoot -5.55508 -14.7686
ltoes -8.17599
631
root 0.582708 17.4906 2.15492 -6.03115 -40.4554 4.04428
lowerback 4.48436 -0.601933 -3.13827
upperback 0.415626 -0.925396 1.7454
thorax -2.00843 -0.4319 3.61912
lowerneck -22.5788 -2.68339 -10.5604
upperneck 22.6304 -1.76477 6.18139
head 11.2429 -0.952736 3.74963
rclavicle -3.29237e-016 1.66979e-014
rhumerus 53.0667 -63.502 -29.3679
rradius 55.3675
rwrist -6.84442
rhand -42.6782 -1.48438
rfingers 7.12502
rthumb -15.5485 -30.8793
lclavicle -3.29237e-016 1.66979e-014
lhumerus 19.8488 46.2764 -0.668892
lradius 48.647
lwrist 5.60416
lhand -25.1571 29.3236
lfingers 7.12502
lthumb 1.35984 59.299
rfemur -0.095597 8.77712 12.2967
rtibia 43.7767
rfoot -13.572 9.6527
rtoes -7.94734
lfemur -12.0727 -3.58092 -16.2121
ltibia 21.9185
lfoot -5.22787 -14.7882
ltoes -8.65245
632
root 0.587701 17.482 2.06316 -5.85759 -40.1035 3.99057
lowerback 4.51207 -0.665838 -3.1452
upperback 0.48188 -1.01286 1.68361
thorax -1.94917 -0.478028 3.5638
lowerneck -22.8207 -2.74039 -10.5847
upperneck 22.6867 -1.79581 6.1369
head 11.3133 -0.972483 3.73472
rclavicle -2.17234e-014 -9.54166e-015
rhumerus 52.7503 -63.3507 -29.4946
rradius 53.712
rwrist -6.36357
rhand -42.2231 -1.98893
rfingers 7.12502
rthumb -15.1101 -31.4174
lclavicle -2.17234e-014 -9.54166e-015
lhumerus 19.1565 45.4302 -0.72072
lradius 46.752
lwrist 4.95813
lhand -24.6304 29.8328
lfingers 7.12502
lthumb 1.86848 59.8044
rfemur -0.0875692 8.81014 12.453
rtibia 43.4454
rfoot -14.0283 9.92652
rtoes -8.05261
lfemur -12.456 -3.91495 -15.9717
ltibia 21.6987
lfoot -4.84597 -14.7799
ltoes -8.78657
633
root 0.592468 17.4766 1.96308 -5.57935 -39.7831 3.84729
lowerback 4.57615 -0.752396 -3.19656
upperback 0.510786 -1.13248 1.69191
thorax -1.94397 -0.538011 3.60928
lowerneck -22.7904 -2.84928 -10.4661
upperneck 22.3921 -1.90553 5.84707
head 11.2044 -1.04194 3.58041
rclavicle 2.05975e-014 -7.95139e-015
rhumerus 52.1624 -63.2871 -29.3005
rradius 52.1915
rwrist -5.99267
rhand -41.8959 -2.2176
rfingers 7.12502
rthumb -14.7949 -31.6695
lclavicle 2.05975e-014 -7.95139e-015
lhumerus 18.2641 44.6472 -0.807386
lradius 45.0305
lwrist 4.34005
lhand -23.9866 30.119
lfingers 7.12502
lthumb 2.49034 60.0842
rfemur -0.166435 8.83015 12.7165
rtibia 43.161
rfoot -14.3625 10.2176
rtoes -8.21699
lfemur -12.9049 -4.18403 -15.6297
ltibia 21.4569
lfoot -4.50842 -14.7617
ltoes -9.50832
634
root 0.59566 17.4716 1.85739 -5.3365 -39.5145 3.7405
lowerback 4.63424 -0.782719 -3.27603
upperback 0.587713 -1.17902 1.66468
thorax -1.8922 -0.563178 3.62884
lowerneck -22.6925 -2.91451 -10.4771
upperneck 21.9386 -1.95886 5.73368
head 11.0212 -1.07144 3.52014
rclavicle -9.72802e-014 -1.43125e-014
rhumerus 51.3033 -63.386 -28.8838
rradius 50.7277
rwrist -5.66727
rhand -41.5518 -2.13461
rfingers 7.12502
rthumb -14.4634 -31.6106
lclavicle -9.72802e-014 -1.43125e-014
lhumerus 17.4113 44.0376 -0.608024
lradius 43.6638
lwrist 3.57605
lhand -22.7542 30.3998
lfingers 7.12502
lthumb 3.68051 60.3478
rfemur -0.319243 8.81701 12.9966
rtibia 42.8678
rfoot -14.6623 10.5025
rtoes -7.93748
lfemur -13.3262 -4.38039 -15.2878
ltibia 21.1504
lfoot -4.15581 -14.78
ltoes -10.0768
635
root 0.600877 17.465 1.75386 -5.10311 -39.2091 3.59237
lowerback 4.70818 -0.869707 -3.27263
upperback 0.823366 -1.29837 1.5822
thorax -1.68243 -0.631632 3.54666
lowerneck -23.1956 -2.84914 -10.4447
upperneck 21.7995 -1.82345 5.77805
head 11.05 -0.990809 3.5519
rclavicle -8.63471e-015 9.54166e-015
rhumerus 51.2071 -63.4954 -29.4977
rradius 49.4686
rwrist -5.25737
rhand -41.2694 -2.10147
rfingers 7.12502
rthumb -14.1912 -31.5967
lclavicle -8.63471e-015 9.54166e-015
lhumerus 16.6403 43.783 -0.445129
lradius 42.461
lwrist 3.29219
lhand -21.729 30.5624
lfingers 7.12502
lthumb 4.67041 60.4909
rfemur -0.458699 8.67388 13.3258
rtibia 42.5223
rfoot -15.0812 10.7395
rtoes -7.58619
lfemur -13.7019 -4.65906 -14.9264
ltibia 20.8152
lfoot -3.91482 -14.664
ltoes -11.2242
636
root 0.609197 17.4608 1.64653 -4.93673 -38.8712 3.46623
lowerback 4.99017 -0.943952 -3.29202
upperback 0.957955 -1.40688 1.5746
thorax -1.69194 -0.688156 3.56068
lowerneck -23.603 -2.9674 -10.2811
upperneck 21.7199 -1.86336 5.28455
head 11.0949 -1.05105 3.33333
rclavicle -4.60932e-014 -6.36111e-015
rhumerus 50.3855 -63.3584 -29.2716
rradius 48.4685
rwrist -5.33308
rhand -40.9272 -2.15086
rfingers 7.12502
rthumb -13.8614 -31.6689
lclavicle -4.60932e-014 -6.36111e-015
lhumerus 15.7141 43.138 -0.408392
lradius 41.3378
lwrist 3.92674
lhand -21.6082 30.7674
lfingers 7.12502
lthumb 4.78711 60.6934
rfemur -0.545976 8.46266 13.6712
rtibia 42.1413
rfoot -15.759 10.6352
rtoes -8.90623
lfemur -14.0295 -5.03583 -14.5815
ltibia 20.4738
lfoot -3.74396 -14.412
ltoes -12.6103
637
root 0.617608 17.4538 1.53487 -4.70082 -38.5039 3.319
lowerback 5.46071 -0.735408 -3.21695
upperback 0.459179 -1.13388 1.77322
thorax -2.49063 -0.52606 3.72461
lowerneck -22.2339 -3.45519 -10.8767
upperneck 21.4438 -2.33386 4.65487
head 10.7881 -1.40564 3.11439
rclavicle -7.20346e-014 -1.35174e-014
rhumerus 45.969 -62.6137 -24.676
rradius 47.5634
rwrist -6.05971
rhand -40.3659 -1.97886
rfingers 7.12502
rthumb -13.3205 -31.5331
lclavicle -7.20346e-014 -1.35174e-014
lhumerus 15.3134 41.2136 0.837006
lradius 40.4406
lwrist 5.09933
lhand -21.4988 31.0512
lfingers 7.12502
lthumb 4.89274 60.9747
rfemur -0.672785 8.10322 14.0081
rtibia 41.7419
rfoot -16.4093 10.4605
rtoes -8.91243
lfemur -14.4421 -5.39203 -14.1997
ltibia 20.1197
lfoot -3.48296 -14.2687
ltoes -13.6406
638
root 0.627593 17.4469 1.42019 -4.36712 -38.1218 3.05114
lowerback 5.82316 -0.980657 -3.33935
upperback 0.60367 -1.47749 1.8383
thorax -2.50929 -0.698502 3.89309
lowerneck -23.3836 -3.25507 -10.0493
upperneck 21.7665 -2.03532 4.00599
head 11.0766 -1.27869 2.79043
rclavicle 3.32964e-015 3.18055e-015
rhumerus 45.7452 -62.5145 -25.0509
rradius 46.5381
rwrist -6.2411
rhand -39.745 -1.87353
rfingers 7.12502
rthumb -12.7219 -31.466
lclavicle 3.32964e-015 3.18055e-015
lhumerus 13.8509 40.9025 0.604492
lradius 39.749
lwrist 5.94805
lhand -20.7107 30.6876
lfingers 7.12502
lthumb 5.65365 60.5922
rfemur -0.865208 7.54328 14.4386
rtibia 41.3684
rfoot -17.0499 10.335
rtoes -8.20408
lfemur -14.8774 -5.72873 -13.705
ltibia 19.7151
lfoot -3.18519 -14.1331
ltoes -14.4572
639
root 0.638867 17.4415 1.30277 -4.00267 -37.7886 2.69824
lowerback 6.18684 -1.1007 -3.25414
upperback 0.741593 -1.64089 1.90601
thorax -2.55566 -0.782456 3.93553
lowerneck -24.0678 -3.05696 -10.2654
upperneck 21.8505 -1.66635 4.27358
head 11.2088 -1.09048 2.98784
rclavicle -2.09643e-013 1.59028e-015
rhumerus 44.7881 -62.422 -24.6707
rradius 45.7375
rwrist -6.62649
rhand -39.0712 -1.7422
rfingers 7.12502
rthumb -12.0723 -31.374
lclavicle -2.09643e-013 1.59028e-015
lhumerus 12.8533 40.6046 0.918867
lradius 39.1093
lwrist 6.87639
lhand -20.198 31.625
lfingers 7.12502
lthumb 6.14864 61.5157
rfemur -1.10787 6.95291 14.9607
rtibia 41.0334
rfoot -17.637 10.2005
rtoes -7.16673
lfemur -15.3211 -6.00891 -13.1187
ltibia 19.3692
lfoot -2.94905 -13.9443
ltoes -15.2034
640
root 0.650547 17.4334 1.18678 -3.71014 -37.5213 2.43125
lowerback 6.47136 -1.18495 -3.12257
upperback 0.949618 -1.75277 1.89517
thorax -2.49368 -0.844973 3.86322
lowerneck -23.9956 -3.17436 -10.0902
upperneck 20.9522 -1.89979 4.32286
head 10.8766 -1.15137 2.92395
rclavicle 2.89729e-014 1.59028e-015
rhumerus 44.0002 -62.3957 -24.6341
rradius 45.1097
rwrist -6.71329
rhand -38.5994 -2.05907
rfingers 7.12502
rthumb -11.6174 -31.717
lclavicle 2.89729e-014 1.59028e-015
lhumerus 11.6371 40.0688 0.919883
lradius 38.6625
lwrist 8.3361
lhand -19.9091 32.0413
lfingers 7.12502
lthumb 6.42753 61.9238
rfemur -1.32851 6.45764 15.4404
rtibia 40.736
rfoot -18.206 9.99895
rtoes -5.27396
lfemur -15.7671 -6.22746 -12.6109
ltibia 19.1289
lfoot -2.91801 -13.6846
ltoes -16.5467
